<?xml version="1.0" standalone="no"?>
<!DOCTYPE svg PUBLIC "-//W3C//DTD SVG 20010904//EN"
 "http://www.w3.org/TR/2001/REC-SVG-20010904/DTD/svg10.dtd">
<svg version="1.0" xmlns="http://www.w3.org/2000/svg"
 width="277.000000pt" height="277.000000pt" viewBox="0 0 277.000000 277.000000"
 preserveAspectRatio="xMidYMid meet">
<metadata>
Created by potrace 1.14, written by Peter Selinger 2001-2017
</metadata>
<g transform="translate(0.000000,277.000000) scale(0.100000,-0.100000)"
fill="#000000" stroke="none">
<path d="M1364 2617 c-6 -7 -49 -46 -95 -88 -143 -131 -155 -143 -324 -329
-17 -19 -59 -71 -94 -115 -34 -44 -68 -87 -74 -95 -53 -67 -200 -283 -245
-360 -18 -30 -37 -62 -42 -70 -59 -93 -181 -334 -245 -485 -26 -60 -53 -123
-60 -140 -44 -99 -175 -535 -175 -581 0 -14 15 -20 90 -41 99 -26 295 -75 315
-78 20 -2 118 -21 165 -30 14 -3 39 -7 55 -10 17 -2 47 -6 68 -9 76 -12 105
-16 163 -21 32 -4 75 -8 94 -10 190 -23 668 -23 850 0 19 2 62 7 94 10 84 8
318 44 401 62 39 8 81 17 94 19 40 8 131 31 231 58 52 14 102 28 109 29 8 2
17 9 19 15 5 15 -62 265 -105 392 -107 315 -224 564 -433 919 -67 114 -264
386 -373 514 -115 136 -446 459 -468 457 -2 -1 -9 -6 -15 -13z m56 -363 c8 -7
34 -28 56 -46 23 -18 61 -49 85 -68 114 -92 362 -357 464 -495 17 -22 32 -42
35 -45 6 -6 85 -125 132 -200 143 -229 285 -604 313 -826 l6 -49 -38 -16
c-133 -57 -391 -145 -410 -141 -2 1 -24 -5 -50 -13 -87 -25 -283 -58 -424 -71
-62 -6 -357 -6 -409 0 -76 8 -156 18 -180 22 -14 2 -41 7 -60 10 -19 3 -42 7
-50 9 -8 2 -31 7 -50 11 -19 3 -39 7 -45 8 -56 15 -84 22 -173 48 -92 27 -224
75 -333 122 l-37 15 19 89 c88 430 299 841 619 1207 156 178 478 464 504 447
6 -3 17 -11 26 -18z"/>
<path d="M1306 2053 c-66 -214 -252 -624 -372 -818 -91 -150 -251 -364 -358
-480 -11 -12 -48 -53 -81 -90 -33 -38 -66 -74 -72 -81 -22 -21 -15 -25 35 -19
26 3 80 8 121 10 69 5 112 8 251 20 30 3 83 7 117 10 152 12 272 88 320 203 9
20 17 66 18 102 2 36 6 153 10 260 4 107 8 236 10 285 2 50 6 176 10 280 3
105 8 232 10 283 2 50 2 92 1 92 -1 0 -10 -26 -20 -57z"/>
<path d="M1446 1970 c4 -145 12 -379 19 -580 3 -69 7 -197 10 -285 3 -89 8
-187 10 -218 7 -105 79 -200 185 -245 75 -32 98 -35 275 -47 44 -3 98 -7 120
-9 22 -2 81 -7 130 -11 50 -3 107 -8 128 -10 43 -5 42 -1 -13 60 -20 22 -59
65 -87 95 -41 45 -120 141 -220 264 -40 49 -165 240 -212 323 -105 187 -221
445 -315 703 l-34 95 4 -135z"/>
</g>
</svg>
