<svg xmlns="http://www.w3.org/2000/svg" viewBox="0 0 172 172" width="172" height="172" fill="#000000">
<!-- https://pay.mysbertips.ru/18653041 -->
<path d="M80.1 0 L80.1 0 Q83 0 83 3L83 5.9 L91.9 5.9 Q94.9 5.9 94.9 8.9L94.9 8.9 Q94.9 11.9 91.9 11.9L83 11.9 L83 17.8 L91.9 17.8 Q94.9 17.8 94.9 20.8L94.9 20.8 Q94.9 23.7 91.9 23.7L89 23.7 L89 44.5 Q89 47.4 86 47.4L86 47.4 Q83 47.4 83 44.5L83 35.6 L77.1 35.6 L77.1 38.6 Q77.1 41.5 74.1 41.5L74.1 41.5 Q71.2 41.5 71.2 38.6L71.2 35.6 L65.2 35.6 L65.2 38.6 Q65.2 41.5 62.3 41.5L62.3 41.5 Q59.3 41.5 59.3 38.6L59.3 32.6 Q59.3 29.7 62.3 29.7L77.1 29.7 L77.1 11.9 L71.2 11.9 L71.2 20.8 Q71.2 23.7 68.2 23.7L62.3 23.7 Q59.3 23.7 59.3 20.8L59.3 8.9 Q59.3 5.9 62.3 5.9L77.1 5.9 L77.1 3 Q77.1 0 80.1 0Z"/>
<path d="M97.9 0 L121.6 0 Q124.6 0 124.6 3L124.6 8.9 Q124.6 11.9 121.6 11.9L121.6 11.9 Q118.6 11.9 118.6 8.9L118.6 5.9 L112.7 5.9 L112.7 11.9 L115.7 11.9 Q118.6 11.9 118.6 14.8L118.6 17.8 L121.6 17.8 Q124.6 17.8 124.6 20.8L124.6 20.8 Q124.6 23.7 121.6 23.7L109.7 23.7 Q106.8 23.7 106.8 20.8L106.8 17.8 L97.9 17.8 Q94.9 17.8 94.9 14.8L94.9 14.8 Q94.9 11.9 97.9 11.9L106.8 11.9 L106.8 5.9 L97.9 5.9 Q94.9 5.9 94.9 3L94.9 3 Q94.9 0 97.9 0Z"/>
<path d="M97.9 23.7 L97.9 23.7 Q100.8 23.7 100.8 26.7L100.8 26.7 Q100.8 29.7 97.9 29.7L97.9 29.7 Q94.9 29.7 94.9 26.7L94.9 26.7 Q94.9 23.7 97.9 23.7Z"/>
<path d="M50.4 29.7 L50.4 29.7 Q53.4 29.7 53.4 32.6L53.4 38.6 Q53.4 41.5 50.4 41.5L50.4 41.5 Q47.4 41.5 47.4 38.6L47.4 35.6 L47.4 32.6 Q47.4 29.7 50.4 29.7Z"/>
<path d="M103.8 29.7 L103.8 29.7 Q106.8 29.7 106.8 32.6L106.8 32.6 Q106.8 35.6 103.8 35.6L103.8 35.6 Q100.8 35.6 100.8 32.6L100.8 32.6 Q100.8 29.7 103.8 29.7Z"/>
<path d="M115.7 29.7 L121.6 29.7 Q124.6 29.7 124.6 32.6L124.6 38.6 Q124.6 41.5 121.6 41.5L121.6 41.5 Q118.6 41.5 118.6 38.6L118.6 35.6 L115.7 35.6 Q112.7 35.6 112.7 32.6L112.7 32.6 Q112.7 29.7 115.7 29.7Z"/>
<path d="M97.9 35.6 L97.9 35.6 Q100.8 35.6 100.8 38.6L100.8 38.6 Q100.8 41.5 97.9 41.5L97.9 41.5 Q94.9 41.5 94.9 38.6L94.9 38.6 Q94.9 35.6 97.9 35.6Z"/>
<path d="M109.7 35.6 L109.7 35.6 Q112.7 35.6 112.7 38.6L112.7 38.6 Q112.7 41.5 109.7 41.5L109.7 41.5 Q106.8 41.5 106.8 38.6L106.8 38.6 Q106.8 35.6 109.7 35.6Z"/>
<path d="M56.3 41.5 L56.3 41.5 Q59.3 41.5 59.3 44.5L59.3 47.4 L65.2 47.4 L65.2 44.5 Q65.2 41.5 68.2 41.5L68.2 41.5 Q71.2 41.5 71.2 44.5L71.2 50.4 Q71.2 53.4 68.2 53.4L53.4 53.4 L53.4 56.3 Q53.4 59.3 50.4 59.3L44.5 59.3 Q41.5 59.3 41.5 56.3L41.5 56.3 Q41.5 53.4 44.5 53.4L47.4 53.4 L47.4 50.4 Q47.4 47.4 50.4 47.4L53.4 47.4 L53.4 44.5 Q53.4 41.5 56.3 41.5Z"/>
<path d="M103.8 41.5 L103.8 41.5 Q106.8 41.5 106.8 44.5L106.8 44.5 Q106.8 47.4 103.8 47.4L103.8 47.4 Q100.8 47.4 100.8 44.5L100.8 44.5 Q100.8 41.5 103.8 41.5Z"/>
<path d="M3 47.4 L3 47.4 Q5.9 47.4 5.9 50.4L5.9 53.4 L8.9 53.4 Q11.9 53.4 11.9 56.3L11.9 56.3 Q11.9 59.3 8.9 59.3L5.9 59.3 L5.9 62.3 Q5.9 65.2 3 65.2L3 65.2 Q0 65.2 0 62.3L0 53.4 L0 50.4 Q0 47.4 3 47.4Z"/>
<path d="M20.8 47.4 L20.8 47.4 Q23.7 47.4 23.7 50.4L23.7 53.4 L29.7 53.4 L29.7 50.4 Q29.7 47.4 32.6 47.4L38.6 47.4 Q41.5 47.4 41.5 50.4L41.5 50.4 Q41.5 53.4 38.6 53.4L35.6 53.4 L35.6 56.3 Q35.6 59.3 32.6 59.3L29.7 59.3 L29.7 62.3 Q29.7 65.2 26.7 65.2L26.7 65.2 Q23.7 65.2 23.7 62.3L23.7 59.3 L20.8 59.3 Q17.8 59.3 17.8 56.3L17.8 53.4 L17.8 50.4 Q17.8 47.4 20.8 47.4Z"/>
<path d="M91.9 47.4 L97.9 47.4 Q100.8 47.4 100.8 50.4L100.8 50.4 Q100.8 53.4 97.9 53.4L94.9 53.4 L94.9 56.3 Q94.9 59.3 91.9 59.3L86 59.3 Q83 59.3 83 56.3L83 56.3 Q83 53.4 86 53.4L89 53.4 L89 50.4 Q89 47.4 91.9 47.4Z"/>
<path d="M121.6 47.4 L127.5 47.4 Q130.5 47.4 130.5 50.4L130.5 53.4 L133.4 53.4 Q136.4 53.4 136.4 56.3L136.4 62.3 Q136.4 65.2 133.4 65.2L127.5 65.2 Q124.6 65.2 124.6 62.3L124.6 59.3 L121.6 59.3 Q118.6 59.3 118.6 56.3L118.6 53.4 L118.6 50.4 Q118.6 47.4 121.6 47.4Z"/>
<path d="M139.4 47.4 L139.4 47.4 Q142.3 47.4 142.3 50.4L142.3 50.4 Q142.3 53.4 139.4 53.4L139.4 53.4 Q136.4 53.4 136.4 50.4L136.4 50.4 Q136.4 47.4 139.4 47.4Z"/>
<path d="M74.1 53.4 L74.1 53.4 Q77.1 53.4 77.1 56.3L77.1 56.3 Q77.1 59.3 74.1 59.3L74.1 59.3 Q71.2 59.3 71.2 56.3L71.2 56.3 Q71.2 53.4 74.1 53.4Z"/>
<path d="M103.8 53.4 L109.7 53.4 Q112.7 53.4 112.7 56.3L112.7 56.3 Q112.7 59.3 109.7 59.3L103.8 59.3 Q100.8 59.3 100.8 56.3L100.8 56.3 Q100.8 53.4 103.8 53.4Z"/>
<path d="M151.2 53.4 L151.2 53.4 Q154.2 53.4 154.2 56.3L154.2 59.3 L163.1 59.3 Q166.1 59.3 166.1 62.3L166.1 71.2 L169 71.2 Q172 71.2 172 74.1L172 74.1 Q172 77.1 169 77.1L163.1 77.1 Q160.1 77.1 160.1 74.1L160.1 71.2 L157.2 71.2 Q154.2 71.2 154.2 68.2L154.2 65.2 L151.2 65.2 Q148.3 65.2 148.3 62.3L148.3 59.3 L148.3 56.3 Q148.3 53.4 151.2 53.4Z"/>
<path d="M169 53.4 L169 53.4 Q172 53.4 172 56.3L172 56.3 Q172 59.3 169 59.3L169 59.3 Q166.1 59.3 166.1 56.3L166.1 56.3 Q166.1 53.4 169 53.4Z"/>
<path d="M38.6 59.3 L38.6 59.3 Q41.5 59.3 41.5 62.3L41.5 62.3 Q41.5 65.2 38.6 65.2L38.6 65.2 Q35.6 65.2 35.6 62.3L35.6 62.3 Q35.6 59.3 38.6 59.3Z"/>
<path d="M62.3 59.3 L68.2 59.3 Q71.2 59.3 71.2 62.3L71.2 65.2 L74.1 65.2 Q77.1 65.2 77.1 68.2L77.1 74.1 Q77.1 77.1 74.1 77.1L74.1 77.1 Q71.2 77.1 71.2 74.1L71.2 71.2 L68.2 71.2 Q65.2 71.2 65.2 68.2L65.2 65.2 L62.3 65.2 Q59.3 65.2 59.3 62.3L59.3 62.3 Q59.3 59.3 62.3 59.3Z"/>
<path d="M97.9 59.3 L97.9 59.3 Q100.8 59.3 100.8 62.3L100.8 62.3 Q100.8 65.2 97.9 65.2L97.9 65.2 Q94.9 65.2 94.9 62.3L94.9 62.3 Q94.9 59.3 97.9 59.3Z"/>
<path d="M115.7 59.3 L115.7 59.3 Q118.6 59.3 118.6 62.3L118.6 65.2 L121.6 65.2 Q124.6 65.2 124.6 68.2L124.6 71.2 L133.4 71.2 Q136.4 71.2 136.4 74.1L136.4 74.1 Q136.4 77.1 133.4 77.1L124.6 77.1 L124.6 80.1 Q124.6 83 121.6 83L115.7 83 Q112.7 83 112.7 80.1L112.7 77.1 L103.8 77.1 Q100.8 77.1 100.8 74.1L100.8 74.1 Q100.8 71.2 103.8 71.2L106.8 71.2 L106.8 68.2 Q106.8 65.2 109.7 65.2L112.7 65.2 L112.7 62.3 Q112.7 59.3 115.7 59.3Z"/>
<path d="M8.9 65.2 L8.9 65.2 Q11.9 65.2 11.9 68.2L11.9 77.1 L17.8 77.1 L17.8 74.1 Q17.8 71.2 20.8 71.2L26.7 71.2 Q29.7 71.2 29.7 74.1L29.7 80.1 Q29.7 83 26.7 83L23.7 83 L23.7 86 Q23.7 89 20.8 89L20.8 89 Q17.8 89 17.8 86L17.8 83 L8.9 83 Q5.9 83 5.9 80.1L5.9 77.1 L3 77.1 Q0 77.1 0 74.1L0 74.1 Q0 71.2 3 71.2L5.9 71.2 L5.9 68.2 Q5.9 65.2 8.9 65.2Z"/>
<path d="M44.5 65.2 L56.3 65.2 Q59.3 65.2 59.3 68.2L59.3 71.2 L62.3 71.2 Q65.2 71.2 65.2 74.1L65.2 74.1 Q65.2 77.1 62.3 77.1L59.3 77.1 L59.3 83 L65.2 83 L65.2 80.1 Q65.2 77.1 68.2 77.1L68.2 77.1 Q71.2 77.1 71.2 80.1L71.2 83 L74.1 83 Q77.1 83 77.1 86L77.1 86 Q77.1 89 74.1 89L71.2 89 L71.2 91.9 Q71.2 94.9 68.2 94.9L68.2 94.9 Q65.2 94.9 65.2 91.9L65.2 89 L59.3 89 L59.3 97.9 Q59.3 100.8 56.3 100.8L56.3 100.8 Q53.4 100.8 53.4 97.9L53.4 71.2 L44.5 71.2 Q41.5 71.2 41.5 68.2L41.5 68.2 Q41.5 65.2 44.5 65.2Z"/>
<path d="M86 65.2 L91.9 65.2 Q94.9 65.2 94.9 68.2L94.9 68.2 Q94.9 71.2 91.9 71.2L86 71.2 Q83 71.2 83 68.2L83 68.2 Q83 65.2 86 65.2Z"/>
<path d="M139.4 65.2 L145.3 65.2 Q148.3 65.2 148.3 68.2L148.3 68.2 Q148.3 71.2 145.3 71.2L139.4 71.2 Q136.4 71.2 136.4 68.2L136.4 68.2 Q136.4 65.2 139.4 65.2Z"/>
<path d="M38.6 71.2 L38.6 71.2 Q41.5 71.2 41.5 74.1L41.5 74.1 Q41.5 77.1 38.6 77.1L38.6 77.1 Q35.6 77.1 35.6 74.1L35.6 74.1 Q35.6 71.2 38.6 71.2Z"/>
<path d="M151.2 71.2 L151.2 71.2 Q154.2 71.2 154.2 74.1L154.2 74.1 Q154.2 77.1 151.2 77.1L151.2 77.1 Q148.3 77.1 148.3 74.1L148.3 74.1 Q148.3 71.2 151.2 71.2Z"/>
<path d="M44.5 77.1 L44.5 77.1 Q47.4 77.1 47.4 80.1L47.4 80.1 Q47.4 83 44.5 83L44.5 83 Q41.5 83 41.5 80.1L41.5 80.1 Q41.5 77.1 44.5 77.1Z"/>
<path d="M97.9 77.1 L97.9 77.1 Q100.8 77.1 100.8 80.1L100.8 89 L121.6 89 Q124.6 89 124.6 91.9L124.6 91.9 Q124.6 94.9 121.6 94.9L118.6 94.9 L118.6 97.9 Q118.6 100.8 115.7 100.8L112.7 100.8 L112.7 112.7 L115.7 112.7 Q118.6 112.7 118.6 115.7L118.6 115.7 Q118.6 118.6 115.7 118.6L112.7 118.6 L112.7 133.4 Q112.7 136.4 109.7 136.4L109.7 136.4 Q106.8 136.4 106.8 133.4L106.8 118.6 L91.9 118.6 Q89 118.6 89 115.7L89 115.7 Q89 112.7 91.9 112.7L94.9 112.7 L94.9 109.7 Q94.9 106.8 97.9 106.8L97.9 106.8 Q100.8 106.8 100.8 109.7L100.8 112.7 L106.8 112.7 L106.8 100.8 L97.9 100.8 Q94.9 100.8 94.9 97.9L94.9 94.9 L89 94.9 L89 97.9 Q89 100.8 86 100.8L80.1 100.8 Q77.1 100.8 77.1 97.9L77.1 91.9 Q77.1 89 80.1 89L94.9 89 L94.9 83 L94.9 80.1 Q94.9 77.1 97.9 77.1Z"/>
<path d="M139.4 77.1 L139.4 77.1 Q142.3 77.1 142.3 80.1L142.3 80.1 Q142.3 83 139.4 83L139.4 83 Q136.4 83 136.4 80.1L136.4 80.1 Q136.4 77.1 139.4 77.1Z"/>
<path d="M38.6 83 L38.6 83 Q41.5 83 41.5 86L41.5 86 Q41.5 89 38.6 89L38.6 89 Q35.6 89 35.6 86L35.6 86 Q35.6 83 38.6 83Z"/>
<path d="M145.3 83 L169 83 Q172 83 172 86L172 86 Q172 89 169 89L166.1 89 L166.1 97.9 Q166.1 100.8 163.1 100.8L163.1 100.8 Q160.1 100.8 160.1 97.9L160.1 89 L154.2 89 L154.2 91.9 Q154.2 94.9 151.2 94.9L142.3 94.9 L142.3 106.8 L145.3 106.8 Q148.3 106.8 148.3 109.7L148.3 109.7 Q148.3 112.7 145.3 112.7L142.3 112.7 L142.3 118.6 L145.3 118.6 Q148.3 118.6 148.3 121.6L148.3 136.4 L160.1 136.4 L160.1 130.5 L157.2 130.5 Q154.2 130.5 154.2 127.5L154.2 121.6 Q154.2 118.6 157.2 118.6L157.2 118.6 Q160.1 118.6 160.1 121.6L160.1 124.6 L169 124.6 Q172 124.6 172 127.5L172 127.5 Q172 130.5 169 130.5L166.1 130.5 L166.1 136.4 L169 136.4 Q172 136.4 172 139.4L172 145.3 Q172 148.3 169 148.3L169 148.3 Q166.1 148.3 166.1 145.3L166.1 142.3 L148.3 142.3 L148.3 148.3 L163.1 148.3 Q166.1 148.3 166.1 151.2L166.1 151.2 Q166.1 154.2 163.1 154.2L160.1 154.2 L160.1 157.2 Q160.1 160.1 157.2 160.1L145.3 160.1 Q142.3 160.1 142.3 157.2L142.3 154.2 L133.4 154.2 Q130.5 154.2 130.5 151.2L130.5 148.3 L121.6 148.3 Q118.6 148.3 118.6 145.3L118.6 121.6 Q118.6 118.6 121.6 118.6L136.4 118.6 L136.4 112.7 L133.4 112.7 Q130.5 112.7 130.5 109.7L130.5 103.8 Q130.5 100.8 133.4 100.8L136.4 100.8 L136.4 91.9 Q136.4 89 139.4 89L142.3 89 L142.3 86 Q142.3 83 145.3 83ZM124.6 127.5 L124.6 142.3 L142.3 142.3 L142.3 124.6 L130.5 124.6 L124.6 124.6 Z"/>
<path d="M32.6 89 L32.6 89 Q35.6 89 35.6 91.9L35.6 91.9 Q35.6 94.9 32.6 94.9L32.6 94.9 Q29.7 94.9 29.7 91.9L29.7 91.9 Q29.7 89 32.6 89Z"/>
<path d="M44.5 89 L44.5 89 Q47.4 89 47.4 91.9L47.4 91.9 Q47.4 94.9 44.5 94.9L44.5 94.9 Q41.5 94.9 41.5 91.9L41.5 91.9 Q41.5 89 44.5 89Z"/>
<path d="M14.8 94.9 L26.7 94.9 Q29.7 94.9 29.7 97.9L29.7 100.8 L32.6 100.8 Q35.6 100.8 35.6 103.8L35.6 106.8 L44.5 106.8 Q47.4 106.8 47.4 109.7L47.4 112.7 L50.4 112.7 Q53.4 112.7 53.4 115.7L53.4 118.6 L56.3 118.6 Q59.3 118.6 59.3 121.6L59.3 133.4 Q59.3 136.4 56.3 136.4L56.3 136.4 Q53.4 136.4 53.4 133.4L53.4 130.5 L50.4 130.5 Q47.4 130.5 47.4 127.5L47.4 118.6 L44.5 118.6 Q41.5 118.6 41.5 115.7L41.5 112.7 L35.6 112.7 L35.6 118.6 L38.6 118.6 Q41.5 118.6 41.5 121.6L41.5 121.6 Q41.5 124.6 38.6 124.6L14.8 124.6 Q11.9 124.6 11.9 121.6L11.9 121.6 Q11.9 118.6 14.8 118.6L29.7 118.6 L29.7 106.8 L26.7 106.8 Q23.7 106.8 23.7 103.8L23.7 100.8 L17.8 100.8 L17.8 109.7 Q17.8 112.7 14.8 112.7L14.8 112.7 Q11.9 112.7 11.9 109.7L11.9 100.8 L11.9 97.9 Q11.9 94.9 14.8 94.9Z"/>
<path d="M38.6 94.9 L38.6 94.9 Q41.5 94.9 41.5 97.9L41.5 97.9 Q41.5 100.8 38.6 100.8L38.6 100.8 Q35.6 100.8 35.6 97.9L35.6 97.9 Q35.6 94.9 38.6 94.9Z"/>
<path d="M127.5 94.9 L127.5 94.9 Q130.5 94.9 130.5 97.9L130.5 97.9 Q130.5 100.8 127.5 100.8L127.5 100.8 Q124.6 100.8 124.6 97.9L124.6 97.9 Q124.6 94.9 127.5 94.9Z"/>
<path d="M62.3 100.8 L62.3 100.8 Q65.2 100.8 65.2 103.8L65.2 103.8 Q65.2 106.8 62.3 106.8L62.3 106.8 Q59.3 106.8 59.3 103.8L59.3 103.8 Q59.3 100.8 62.3 100.8Z"/>
<path d="M74.1 100.8 L74.1 100.8 Q77.1 100.8 77.1 103.8L77.1 106.8 L80.1 106.8 Q83 106.8 83 109.7L83 115.7 Q83 118.6 80.1 118.6L80.1 118.6 Q77.1 118.6 77.1 115.7L77.1 112.7 L68.2 112.7 Q65.2 112.7 65.2 109.7L65.2 109.7 Q65.2 106.8 68.2 106.8L71.2 106.8 L71.2 103.8 Q71.2 100.8 74.1 100.8Z"/>
<path d="M151.2 100.8 L151.2 100.8 Q154.2 100.8 154.2 103.8L154.2 103.8 Q154.2 106.8 151.2 106.8L151.2 106.8 Q148.3 106.8 148.3 103.8L148.3 103.8 Q148.3 100.8 151.2 100.8Z"/>
<path d="M169 100.8 L169 100.8 Q172 100.8 172 103.8L172 115.7 Q172 118.6 169 118.6L163.1 118.6 Q160.1 118.6 160.1 115.7L160.1 109.7 Q160.1 106.8 163.1 106.8L166.1 106.8 L166.1 103.8 Q166.1 100.8 169 100.8Z"/>
<path d="M3 106.8 L3 106.8 Q5.9 106.8 5.9 109.7L5.9 109.7 Q5.9 112.7 3 112.7L3 112.7 Q0 112.7 0 109.7L0 109.7 Q0 106.8 3 106.8Z"/>
<path d="M121.6 106.8 L121.6 106.8 Q124.6 106.8 124.6 109.7L124.6 109.7 Q124.6 112.7 121.6 112.7L121.6 112.7 Q118.6 112.7 118.6 109.7L118.6 109.7 Q118.6 106.8 121.6 106.8Z"/>
<path d="M3 118.6 L3 118.6 Q5.9 118.6 5.9 121.6L5.9 121.6 Q5.9 124.6 3 124.6L3 124.6 Q0 124.6 0 121.6L0 121.6 Q0 118.6 3 118.6Z"/>
<path d="M68.2 118.6 L74.1 118.6 Q77.1 118.6 77.1 121.6L77.1 121.6 Q77.1 124.6 74.1 124.6L71.2 124.6 L71.2 127.5 Q71.2 130.5 68.2 130.5L68.2 130.5 Q65.2 130.5 65.2 127.5L65.2 124.6 L65.2 121.6 Q65.2 118.6 68.2 118.6Z"/>
<path d="M86 118.6 L86 118.6 Q89 118.6 89 121.6L89 121.6 Q89 124.6 86 124.6L86 124.6 Q83 124.6 83 121.6L83 121.6 Q83 118.6 86 118.6Z"/>
<path d="M80.1 124.6 L80.1 124.6 Q83 124.6 83 127.5L83 130.5 L86 130.5 Q89 130.5 89 133.4L89 133.4 Q89 136.4 86 136.4L83 136.4 L83 139.4 Q83 142.3 80.1 142.3L77.1 142.3 L77.1 145.3 Q77.1 148.3 74.1 148.3L74.1 148.3 Q71.2 148.3 71.2 145.3L71.2 139.4 Q71.2 136.4 74.1 136.4L77.1 136.4 L77.1 130.5 L77.1 127.5 Q77.1 124.6 80.1 124.6Z"/>
<path d="M97.9 130.5 L97.9 130.5 Q100.8 130.5 100.8 133.4L100.8 133.4 Q100.8 136.4 97.9 136.4L97.9 136.4 Q94.9 136.4 94.9 133.4L94.9 133.4 Q94.9 130.5 97.9 130.5Z"/>
<path d="M133.4 130.5 L133.4 130.5 Q136.4 130.5 136.4 133.4L136.4 133.4 Q136.4 136.4 133.4 136.4L133.4 136.4 Q130.5 136.4 130.5 133.4L130.5 133.4 Q130.5 130.5 133.4 130.5Z"/>
<path d="M50.4 136.4 L50.4 136.4 Q53.4 136.4 53.4 139.4L53.4 139.4 Q53.4 142.3 50.4 142.3L50.4 142.3 Q47.4 142.3 47.4 139.4L47.4 139.4 Q47.4 136.4 50.4 136.4Z"/>
<path d="M62.3 136.4 L62.3 136.4 Q65.2 136.4 65.2 139.4L65.2 145.3 Q65.2 148.3 62.3 148.3L62.3 148.3 Q59.3 148.3 59.3 145.3L59.3 142.3 L59.3 139.4 Q59.3 136.4 62.3 136.4Z"/>
<path d="M86 142.3 L86 142.3 Q89 142.3 89 145.3L89 151.2 Q89 154.2 86 154.2L86 154.2 Q83 154.2 83 151.2L83 148.3 L83 145.3 Q83 142.3 86 142.3Z"/>
<path d="M103.8 142.3 L109.7 142.3 Q112.7 142.3 112.7 145.3L112.7 148.3 L115.7 148.3 Q118.6 148.3 118.6 151.2L118.6 160.1 L127.5 160.1 Q130.5 160.1 130.5 163.1L130.5 163.1 Q130.5 166.1 127.5 166.1L124.6 166.1 L124.6 169 Q124.6 172 121.6 172L121.6 172 Q118.6 172 118.6 169L118.6 166.1 L115.7 166.1 Q112.7 166.1 112.7 163.1L112.7 154.2 L97.9 154.2 Q94.9 154.2 94.9 151.2L94.9 151.2 Q94.9 148.3 97.9 148.3L100.8 148.3 L100.8 145.3 Q100.8 142.3 103.8 142.3Z"/>
<path d="M50.4 148.3 L56.3 148.3 Q59.3 148.3 59.3 151.2L59.3 160.1 L65.2 160.1 L65.2 157.2 Q65.2 154.2 68.2 154.2L68.2 154.2 Q71.2 154.2 71.2 157.2L71.2 160.1 L74.1 160.1 Q77.1 160.1 77.1 163.1L77.1 163.1 Q77.1 166.1 74.1 166.1L65.2 166.1 L65.2 169 Q65.2 172 62.3 172L50.4 172 Q47.4 172 47.4 169L47.4 169 Q47.4 166.1 50.4 166.1L53.4 166.1 L53.4 154.2 L50.4 154.2 Q47.4 154.2 47.4 151.2L47.4 151.2 Q47.4 148.3 50.4 148.3Z"/>
<path d="M169 154.2 L169 154.2 Q172 154.2 172 157.2L172 157.2 Q172 160.1 169 160.1L169 160.1 Q166.1 160.1 166.1 157.2L166.1 157.2 Q166.1 154.2 169 154.2Z"/>
<path d="M91.9 160.1 L103.8 160.1 Q106.8 160.1 106.8 163.1L106.8 166.1 L109.7 166.1 Q112.7 166.1 112.7 169L112.7 169 Q112.7 172 109.7 172L97.9 172 Q94.9 172 94.9 169L94.9 166.1 L91.9 166.1 Q89 166.1 89 163.1L89 163.1 Q89 160.1 91.9 160.1Z"/>
<path d="M139.4 160.1 L139.4 160.1 Q142.3 160.1 142.3 163.1L142.3 163.1 Q142.3 166.1 139.4 166.1L139.4 166.1 Q136.4 166.1 136.4 163.1L136.4 163.1 Q136.4 160.1 139.4 160.1Z"/>
<path d="M163.1 160.1 L163.1 160.1 Q166.1 160.1 166.1 163.1L166.1 169 Q166.1 172 163.1 172L163.1 172 Q160.1 172 160.1 169L160.1 166.1 L160.1 163.1 Q160.1 160.1 163.1 160.1Z"/>
<path d="M80.1 166.1 L86 166.1 Q89 166.1 89 169L89 169 Q89 172 86 172L80.1 172 Q77.1 172 77.1 169L77.1 169 Q77.1 166.1 80.1 166.1Z"/>
<path d="M133.4 166.1 L133.4 166.1 Q136.4 166.1 136.4 169L136.4 169 Q136.4 172 133.4 172L133.4 172 Q130.5 172 130.5 169L130.5 169 Q130.5 166.1 133.4 166.1Z"/>
<path d="M145.3 166.1 L145.3 166.1 Q148.3 166.1 148.3 169L148.3 169 Q148.3 172 145.3 172L145.3 172 Q142.3 172 142.3 169L142.3 169 Q142.3 166.1 145.3 166.1Z"/>
<path d="M 20.8 0 A 20.8 20.8 0 1 0 20.8 41.6 A 20.8 20.8 0 1 0 20.8 0 Z M 20.8 6 A 14.8 14.8 0 1 1 20.8 35.6 A 14.8 14.8 0 1 1 20.8 6 Z" />
<path d="M 20.8 11.9 A 8.9 8.9 0 1 0 20.8 29.7 A 8.9 8.9 0 1 0 20.8 11.9 Z" />
<path d="M 151.2 0 A 20.8 20.8 0 1 0 151.2 41.6 A 20.8 20.8 0 1 0 151.2 0 Z M 151.2 6 A 14.8 14.8 0 1 1 151.2 35.6 A 14.8 14.8 0 1 1 151.2 6 Z" />
<path d="M 151.2 11.9 A 8.9 8.9 0 1 0 151.2 29.7 A 8.9 8.9 0 1 0 151.2 11.9 Z" />
<path d="M 20.8 130.39999999999998 A 20.8 20.8 0 1 0 20.8 172 A 20.8 20.8 0 1 0 20.8 130.4 Z M 20.8 136.39999999999998 A 14.8 14.8 0 1 1 20.8 166 A 14.8 14.8 0 1 1 20.8 136.4 Z" />
<path d="M 20.8 142.29999999999998 A 8.9 8.9 0 1 0 20.8 160.1 A 8.9 8.9 0 1 0 20.8 142.3 Z" />

</svg>